<?xml version="1.0" encoding="UTF-8" standalone="no"?>
<!-- Generator: Adobe Illustrator 24.0.2, SVG Export Plug-In . SVG Version: 6.00 Build 0)  -->

<svg
   version="1.1"
   id="Layer_1"
   x="0px"
   y="0px"
   viewBox="0 0 24 24"
   style="enable-background:new 0 0 24 24;"
   xml:space="preserve"
   sodipodi:docname="interface-essential-110.svg"
   inkscape:version="1.1.2 (0a00cf5339, 2022-02-04)"
   xmlns:inkscape="http://www.inkscape.org/namespaces/inkscape"
   xmlns:sodipodi="http://sodipodi.sourceforge.net/DTD/sodipodi-0.dtd"
   xmlns="http://www.w3.org/2000/svg"
   xmlns:svg="http://www.w3.org/2000/svg"><defs
   id="defs17" /><sodipodi:namedview
   id="namedview15"
   pagecolor="#ffffff"
   bordercolor="#666666"
   borderopacity="1.0"
   inkscape:pageshadow="2"
   inkscape:pageopacity="0.0"
   inkscape:pagecheckerboard="0"
   showgrid="false"
   inkscape:zoom="31.541667"
   inkscape:cx="12.015852"
   inkscape:cy="10.097754"
   inkscape:window-width="1920"
   inkscape:window-height="943"
   inkscape:window-x="0"
   inkscape:window-y="40"
   inkscape:window-maximized="1"
   inkscape:current-layer="Layer_1" />
<style
   type="text/css"
   id="style2">
	.st0{fill:none;}
	.st1{fill:none;stroke-width:1.5;stroke-linecap:round;stroke-linejoin:round;}
</style>
<path
   stroke="#323232"
   class="st1"
   d="M 6.8,19.8 4.1,17.1 C 3.4,16.4 3,15.4 3,14.3 V 9.7 C 3,8.6 3.4,7.6 4.2,6.9 L 6.9,4.2 C 7.6,3.4 8.6,3 9.7,3 h 4.7 c 1.1,0 2.1,0.4 2.8,1.2 l 2.7,2.7 C 20.6,7.6 21,8.6 21,9.7 v 4.7 c 0,1.1 -0.4,2.1 -1.2,2.8 l -2.7,2.7 c -0.8,0.8 -1.8,1.2 -2.8,1.2 H 9.7 C 8.6,21 7.6,20.6 6.8,19.8 Z"
   id="path6" /><path
   stroke="#323232"
   class="st1"
   d="M 9,15 15,9"
   id="path8" /><path
   stroke="#323232"
   class="st1"
   d="M 15,15 9,9"
   id="path10" />
</svg>
